<svg width="40" height="52" viewBox="0 0 40 52" fill="none" xmlns="http://www.w3.org/2000/svg">
<path d="M19.9999 51.4389C16.3912 48.3607 13.0462 44.9861 9.99995 41.3504C5.42855 35.8904 2.52474e-06 27.759 2.52474e-06 20.0105C-0.00404935 11.9178 4.86925 4.62027 12.3458 1.52316C19.8224 -1.57394 28.4286 0.139864 34.1484 5.86486C37.9097 9.60944 40.0167 14.7031 39.9999 20.0105C39.9999 27.759 34.5713 35.8904 29.9998 41.3504C26.9536 44.9861 23.6086 48.3607 19.9999 51.4389ZM19.9999 5.72486C12.1141 5.73431 5.72371 12.1247 5.71426 20.0105C5.71426 23.3419 7.21997 29.1105 14.3856 37.6847C16.1517 39.7934 18.0257 41.8094 19.9999 43.7247C21.9743 41.8117 23.8491 39.7986 25.617 37.6933C32.7798 29.1076 34.2855 23.3391 34.2855 20.0105C34.2761 12.1247 27.8857 5.73431 19.9999 5.72486ZM19.9999 28.5819C15.2661 28.5819 11.4285 24.7444 11.4285 20.0105C11.4285 15.2767 15.2661 11.4391 19.9999 11.4391C24.7337 11.4391 28.5713 15.2767 28.5713 20.0105C28.5713 22.2838 27.6682 24.4639 26.0608 26.0714C24.4533 27.6788 22.2732 28.5819 19.9999 28.5819Z" fill="#FF5722"/>
</svg>
