<svg width="0" height="0" class="hidden">
  <symbol fill="none" xmlns="http://www.w3.org/2000/svg" viewBox="0 0 27 21" id="email">
    <path d="M25.8125 0.174316H1.4375C0.918945 0.174316 0.5 0.593262 0.5 1.11182V19.8618C0.5 20.3804 0.918945 20.7993 1.4375 20.7993H25.8125C26.3311 20.7993 26.75 20.3804 26.75 19.8618V1.11182C26.75 0.593262 26.3311 0.174316 25.8125 0.174316ZM24.6406 3.42041V18.6899H2.60938V3.42041L1.80078 2.79053L2.95215 1.31104L4.20605 2.28662H23.0469L24.3008 1.31104L25.4521 2.79053L24.6406 3.42041ZM23.0469 2.28369L13.625 9.60791L4.20312 2.28369L2.94922 1.30811L1.79785 2.7876L2.60645 3.41748L12.6143 11.1987C12.9021 11.4223 13.2561 11.5437 13.6206 11.5437C13.9851 11.5437 14.3391 11.4223 14.627 11.1987L24.6406 3.42041L25.4492 2.79053L24.2979 1.31104L23.0469 2.28369Z" fill="#FF5722"></path>
  </symbol>
  <symbol xmlns="http://www.w3.org/2000/svg" xmlns:xlink="http://www.w3.org/1999/xlink" viewBox="0 0 30 30" id="facebook">
    <g id="surface262200391">
      <path d="M 24 4 L 6 4 C 4.894531 4 4 4.894531 4 6 L 4 24 C 4 25.105469 4.894531 26 6 26 L 16 26 L 16 17 L 13 17 L 13 14 L 16 14 L 16 12.390625 C 16 9.339844 17.484375 8 20.019531 8 C 21.234375 8 21.878906 8.089844 22.179688 8.132812 L 22.179688 11 L 20.453125 11 C 19.375 11 19 11.566406 19 12.71875 L 19 14 L 22.152344 14 L 21.726562 17 L 19 17 L 19 26 L 24 26 C 25.105469 26 26 25.105469 26 24 L 26 6 C 26 4.894531 25.105469 4 24 4 Z M 24 4 "></path>
    </g>
  </symbol>
  <symbol xmlns="http://www.w3.org/2000/svg" xmlns:xlink="http://www.w3.org/1999/xlink" viewBox="0 0 50 50" id="linkedin">
    <g id="surface262672445">
      <path d="M 41 4 L 9 4 C 6.238281 4 4 6.238281 4 9 L 4 41 C 4 43.761719 6.238281 46 9 46 L 41 46 C 43.761719 46 46 43.761719 46 41 L 46 9 C 46 6.238281 43.761719 4 41 4 Z M 17 20 L 17 39 L 11 39 L 11 20 Z M 11 14.46875 C 11 13.070312 12.199219 12 14 12 C 15.800781 12 16.929688 13.070312 17 14.46875 C 17 15.871094 15.878906 17 14 17 C 12.199219 17 11 15.871094 11 14.46875 Z M 39 39 L 33 39 C 33 39 33 29.738281 33 29 C 33 27 32 25 29.5 24.960938 L 29.421875 24.960938 C 27 24.960938 26 27.019531 26 29 C 26 29.910156 26 39 26 39 L 20 39 L 20 20 L 26 20 L 26 22.558594 C 26 22.558594 27.929688 20 31.808594 20 C 35.78125 20 39 22.730469 39 28.261719 Z M 39 39 "></path>
    </g>
  </symbol>
  <symbol fill="none" xmlns="http://www.w3.org/2000/svg" viewBox="0 0 40 52" id="location">
    <path d="M19.9999 51.4389C16.3912 48.3607 13.0462 44.9861 9.99995 41.3504C5.42855 35.8904 2.52474e-06 27.759 2.52474e-06 20.0105C-0.00404935 11.9178 4.86925 4.62027 12.3458 1.52316C19.8224 -1.57394 28.4286 0.139864 34.1484 5.86486C37.9097 9.60944 40.0167 14.7031 39.9999 20.0105C39.9999 27.759 34.5713 35.8904 29.9998 41.3504C26.9536 44.9861 23.6086 48.3607 19.9999 51.4389ZM19.9999 5.72486C12.1141 5.73431 5.72371 12.1247 5.71426 20.0105C5.71426 23.3419 7.21997 29.1105 14.3856 37.6847C16.1517 39.7934 18.0257 41.8094 19.9999 43.7247C21.9743 41.8117 23.8491 39.7986 25.617 37.6933C32.7798 29.1076 34.2855 23.3391 34.2855 20.0105C34.2761 12.1247 27.8857 5.73431 19.9999 5.72486ZM19.9999 28.5819C15.2661 28.5819 11.4285 24.7444 11.4285 20.0105C11.4285 15.2767 15.2661 11.4391 19.9999 11.4391C24.7337 11.4391 28.5713 15.2767 28.5713 20.0105C28.5713 22.2838 27.6682 24.4639 26.0608 26.0714C24.4533 27.6788 22.2732 28.5819 19.9999 28.5819Z" fill="#FF5722"></path>
  </symbol>
  <symbol fill="none" xmlns="http://www.w3.org/2000/svg" viewBox="0 0 16 27" id="phone">
    <path d="M12.2223 0.675049H3.33346C1.48901 0.675049 0.00012207 2.22689 0.00012207 4.14931V22.6787C0.00012207 24.6012 1.48901 26.153 3.33346 26.153H12.2223C14.0668 26.153 15.5557 24.6012 15.5557 22.6787V4.14931C15.5557 2.22689 14.0668 0.675049 12.2223 0.675049ZM10.0001 23.8368H5.55568V22.6787H10.0001V23.8368ZM13.6112 20.3625H1.94457V4.14931H13.6112V20.3625Z" fill="#FF5722"></path>
  </symbol>
  <symbol xmlns="http://www.w3.org/2000/svg" xmlns:xlink="http://www.w3.org/1999/xlink" viewBox="0 0 30 30" id="twitter">
    <g id="surface262226418">
      <path d="M 28 6.9375 C 27.042969 7.363281 26.015625 7.648438 24.9375 7.777344 C 26.039062 7.117188 26.882812 6.070312 27.28125 4.824219 C 26.25 5.4375 25.109375 5.882812 23.894531 6.121094 C 22.921875 5.085938 21.535156 4.4375 20 4.4375 C 17.054688 4.4375 14.664062 6.824219 14.664062 9.769531 C 14.664062 10.1875 14.714844 10.597656 14.804688 10.984375 C 10.371094 10.761719 6.441406 8.640625 3.808594 5.410156 C 3.351562 6.199219 3.089844 7.113281 3.089844 8.09375 C 3.089844 9.945312 4.027344 11.578125 5.460938 12.53125 C 4.585938 12.503906 3.761719 12.265625 3.042969 11.867188 C 3.042969 11.890625 3.042969 11.910156 3.042969 11.933594 C 3.042969 14.519531 4.882812 16.675781 7.324219 17.164062 C 6.875 17.285156 6.402344 17.351562 5.917969 17.351562 C 5.574219 17.351562 5.238281 17.316406 4.914062 17.253906 C 5.59375 19.375 7.5625 20.917969 9.898438 20.960938 C 8.070312 22.390625 5.773438 23.242188 3.273438 23.242188 C 2.84375 23.242188 2.417969 23.21875 2 23.167969 C 4.359375 24.683594 7.164062 25.566406 10.175781 25.566406 C 19.988281 25.566406 25.351562 17.4375 25.351562 10.386719 C 25.351562 10.15625 25.347656 9.925781 25.335938 9.699219 C 26.378906 8.945312 27.285156 8.007812 28 6.9375 Z M 28 6.9375 "></path>
    </g>
  </symbol>
</svg>